<svg xmlns="http://www.w3.org/2000/svg" xmlns:xlink="http://www.w3.org/1999/xlink" width="512" zoomAndPan="magnify" viewBox="0 0 384 383.999986" height="512" preserveAspectRatio="xMidYMid meet" version="1.0"><defs><clipPath id="944fa65983"><path d="M 349.429688 205.917969 L 352.910156 205.917969 L 352.910156 251.65625 L 349.429688 251.65625 Z M 349.429688 205.917969 " clip-rule="nonzero"/></clipPath><clipPath id="c7b8098a54"><path d="M 351 206.550781 C 352.648438 222.449219 350.476562 244.800781 351.675781 249.074219 C 351.976562 250.199219 352.949219 250.574219 352.875 251.023438 C 352.800781 251.324219 352.199219 251.625 351.976562 251.625 C 351.75 251.625 351.375 251.175781 351.375 250.949219 C 351.375 250.648438 351.824219 250.125 352.125 250.125 C 352.351562 250.125 352.875 250.726562 352.875 250.949219 C 352.800781 251.175781 351.976562 251.550781 351.601562 251.476562 C 351.074219 251.25 350.476562 250.425781 350.175781 249.074219 C 348.898438 244.351562 351.148438 222.449219 350.699219 214.949219 C 350.476562 211.273438 349.125 207.898438 349.5 206.699219 C 349.648438 206.25 349.949219 206.023438 350.175781 205.949219 C 350.476562 205.949219 351 206.550781 351 206.550781 " clip-rule="nonzero"/></clipPath></defs><path fill="#100f0d" d="M 370.011719 136.054688 L 370.011719 148.769531 L 357.296875 148.769531 L 357.296875 136.054688 Z M 344.582031 282.277344 L 344.582031 371.285156 L 281.007812 371.285156 L 281.007812 49.679688 L 312.792969 17.890625 L 344.582031 49.679688 Z M 370.011719 294.992188 L 370.011719 307.707031 L 357.296875 307.707031 L 357.296875 294.992188 Z M 236.503906 307.707031 L 236.503906 294.992188 L 268.292969 294.992188 L 268.292969 307.707031 Z M 223.789062 371.285156 L 160.210938 371.285156 L 160.210938 49.679688 L 192 17.890625 L 223.789062 49.679688 Z M 115.707031 307.707031 L 115.707031 294.992188 L 147.496094 294.992188 L 147.496094 307.707031 Z M 102.992188 371.285156 L 39.417969 371.285156 L 39.417969 49.679688 L 71.207031 17.890625 L 102.992188 49.679688 Z M 13.988281 307.707031 L 13.988281 294.992188 L 26.703125 294.992188 L 26.703125 307.707031 Z M 13.988281 148.769531 L 13.988281 136.054688 L 26.703125 136.054688 L 26.703125 148.769531 Z M 147.496094 161.484375 L 147.496094 282.277344 L 115.707031 282.277344 L 115.707031 161.484375 Z M 147.496094 136.054688 L 147.496094 148.769531 L 115.707031 148.769531 L 115.707031 136.054688 Z M 268.292969 161.484375 L 268.292969 282.277344 L 236.503906 282.277344 L 236.503906 161.484375 Z M 268.292969 136.054688 L 268.292969 148.769531 L 236.503906 148.769531 L 236.503906 136.054688 Z M 357.296875 44.414062 L 312.792969 -0.0898438 L 268.292969 44.414062 L 268.292969 123.335938 L 236.503906 123.335938 L 236.503906 44.414062 L 192 -0.0898438 L 147.496094 44.414062 L 147.496094 123.335938 L 115.707031 123.335938 L 115.707031 44.414062 L 71.207031 -0.0898438 L 26.703125 44.414062 L 26.703125 123.335938 L 1.273438 123.335938 L 1.273438 161.484375 L 26.703125 161.484375 L 26.703125 282.277344 L 1.273438 282.277344 L 1.273438 320.421875 L 26.703125 320.421875 L 26.703125 384 L 115.707031 384 L 115.707031 320.421875 L 147.496094 320.421875 L 147.496094 384 L 236.503906 384 L 236.503906 320.421875 L 268.292969 320.421875 L 268.292969 384 L 357.296875 384 L 357.296875 320.421875 L 382.726562 320.421875 L 382.726562 282.277344 L 357.296875 282.277344 L 357.296875 161.484375 L 382.726562 161.484375 L 382.726562 123.335938 L 357.296875 123.335938 L 357.296875 44.414062 " fill-opacity="1" fill-rule="nonzero"/><g clip-path="url(#944fa65983)"><g clip-path="url(#c7b8098a54)"><path fill="#000000" d="M 346.5 202.949219 L 355.875 202.949219 L 355.875 254.621094 L 346.5 254.621094 Z M 346.5 202.949219 " fill-opacity="1" fill-rule="nonzero"/></g></g></svg>