<svg xmlns="http://www.w3.org/2000/svg" xmlns:xlink="http://www.w3.org/1999/xlink" width="512" zoomAndPan="magnify" viewBox="0 0 384 383.999986" height="512" preserveAspectRatio="xMidYMid meet" version="1.0"><defs><clipPath id="e56cc0e83c"><path d="M 29.28125 0 L 354.78125 0 L 354.78125 384 L 29.28125 384 Z M 29.28125 0 " clip-rule="nonzero"/></clipPath><clipPath id="b6340a950a"><path d="M 124.425781 108.527344 L 125.875 108.527344 L 125.875 109.75 L 124.425781 109.75 Z M 124.425781 108.527344 " clip-rule="nonzero"/></clipPath><clipPath id="da26ad06ad"><path d="M 125.851562 108.976562 C 125.25 109.949219 124.648438 109.800781 124.5 109.574219 C 124.351562 109.351562 124.5 108.75 124.648438 108.601562 C 124.875 108.449219 125.699219 108.675781 125.699219 108.675781 " clip-rule="nonzero"/></clipPath><clipPath id="cc51181119"><path d="M 252.769531 337.222656 L 255.925781 337.222656 L 255.925781 362.726562 L 252.769531 362.726562 Z M 252.769531 337.222656 " clip-rule="nonzero"/></clipPath><clipPath id="988efbe106"><path d="M 255.898438 338.101562 C 254.476562 350.398438 255.523438 360.074219 254.699219 361.949219 C 254.476562 362.398438 254.175781 362.699219 253.949219 362.699219 C 253.648438 362.625 253.199219 362.101562 253.199219 361.800781 C 253.199219 361.574219 253.800781 361.125 254.101562 361.199219 C 254.324219 361.199219 254.699219 361.800781 254.699219 362.101562 C 254.625 362.324219 254.25 362.699219 254.023438 362.699219 C 253.726562 362.625 253.425781 362.398438 253.199219 361.949219 C 252.375 360.074219 252.976562 350.398438 253.273438 345.976562 C 253.574219 342.75 253.726562 338.699219 254.476562 337.726562 C 254.773438 337.351562 255.148438 337.199219 255.375 337.273438 C 255.601562 337.351562 255.898438 338.101562 255.898438 338.101562 " clip-rule="nonzero"/></clipPath></defs><g clip-path="url(#e56cc0e83c)"><path fill="#000000" d="M 312.679688 31.460938 C 317.40625 43.769531 324.519531 53.75 333.207031 60.050781 C 324.519531 66.355469 317.40625 76.324219 312.679688 88.644531 C 307.957031 76.324219 300.84375 66.355469 292.152344 60.050781 C 300.84375 53.738281 307.960938 43.769531 312.679688 31.460938 Z M 277.910156 65.546875 C 292.800781 70.648438 304.445312 90.417969 306.898438 114.738281 C 307.585938 121.65625 317.769531 121.65625 318.46875 114.738281 C 320.917969 90.417969 332.566406 70.648438 347.453125 65.546875 C 352.675781 63.757812 352.671875 56.335938 347.453125 54.546875 C 332.566406 49.449219 320.917969 29.683594 318.46875 5.359375 C 318.164062 2.386719 315.664062 0.128906 312.679688 0.128906 C 309.695312 0.128906 307.191406 2.386719 306.890625 5.359375 C 304.445312 29.679688 292.800781 49.449219 277.910156 54.546875 C 272.695312 56.335938 272.691406 63.761719 277.910156 65.546875 Z M 217.191406 49.472656 C 219.585938 53.945312 222.59375 57.765625 226.082031 60.71875 C 222.59375 63.683594 219.585938 67.5 217.191406 71.976562 C 214.792969 67.5 211.777344 63.683594 208.292969 60.71875 C 211.777344 57.765625 214.792969 53.941406 217.191406 49.472656 Z M 194.929688 66.261719 C 203.363281 68.933594 209.984375 79.492188 211.402344 92.542969 C 212.15625 99.394531 222.222656 99.402344 222.964844 92.542969 C 224.386719 79.496094 231.015625 68.933594 239.453125 66.269531 C 244.84375 64.5625 244.828125 56.875 239.453125 55.171875 C 231.015625 52.507812 224.386719 41.949219 222.964844 28.902344 C 222.222656 22.039062 212.15625 22.050781 211.402344 28.902344 C 209.988281 41.949219 203.363281 52.507812 194.929688 55.171875 C 189.527344 56.882812 189.539062 64.570312 194.929688 66.261719 Z M 175 289.742188 C 171.59375 282.628906 166.929688 276.710938 161.378906 272.511719 C 166.929688 268.300781 171.59375 262.386719 175 255.277344 C 178.410156 262.386719 183.070312 268.300781 188.632812 272.511719 C 183.070312 276.710938 178.410156 282.628906 175 289.742188 Z M 202.773438 266.949219 C 191.488281 263.476562 182.644531 249.964844 180.78125 233.335938 C 180.011719 226.496094 169.980469 226.496094 169.222656 233.335938 C 167.359375 249.964844 158.519531 263.476562 147.230469 266.949219 C 141.78125 268.625 141.777344 276.390625 147.230469 278.066406 C 158.519531 281.539062 167.359375 295.046875 169.222656 311.683594 C 169.980469 318.523438 180.011719 318.519531 180.78125 311.683594 C 182.644531 295.046875 191.488281 281.539062 202.773438 278.066406 C 208.222656 276.390625 208.21875 268.625 202.773438 266.949219 Z M 107.5625 234.707031 L 107.5625 297.253906 C 107.5625 300.464844 104.964844 303.066406 101.746094 303.066406 C 98.539062 303.066406 95.929688 300.464844 95.929688 297.253906 L 95.929688 234.707031 C 95.929688 231.496094 98.539062 228.894531 101.746094 228.894531 C 104.964844 228.894531 107.5625 231.496094 107.5625 234.707031 Z M 107.5625 321.402344 L 107.5625 338.167969 C 107.5625 341.378906 104.964844 343.984375 101.746094 343.984375 C 98.539062 343.984375 95.929688 341.378906 95.929688 338.167969 L 95.929688 321.402344 C 95.929688 318.195312 98.539062 315.589844 101.746094 315.589844 C 104.964844 315.589844 107.5625 318.195312 107.5625 321.402344 Z M 40.882812 352.605469 L 40.882812 369.371094 C 40.882812 372.574219 38.277344 375.179688 35.066406 375.179688 C 31.847656 375.179688 29.253906 372.574219 29.253906 369.371094 L 29.253906 352.605469 C 29.253906 349.390625 31.847656 346.792969 35.066406 346.792969 C 38.277344 346.792969 40.882812 349.390625 40.882812 352.605469 Z M 74.003906 326.886719 L 74.003906 343.644531 C 74.003906 346.855469 71.394531 349.457031 68.183594 349.457031 C 64.976562 349.457031 62.371094 346.855469 62.371094 343.644531 L 62.371094 326.886719 C 62.371094 323.667969 64.976562 321.070312 68.183594 321.070312 C 71.394531 321.070312 74.003906 323.667969 74.003906 326.886719 Z M 330.300781 180.890625 C 322.757812 191.710938 312.613281 198.097656 301.785156 197.859375 C 241.675781 197.859375 181.566406 197.859375 121.457031 197.859375 C 136.394531 184.363281 144.203125 162.503906 144.992188 141.050781 L 342.734375 141.050781 C 342.109375 156.175781 337.753906 170.207031 330.300781 180.890625 Z M 290.472656 265.675781 L 248.859375 307.277344 C 247.769531 308.367188 247.15625 309.851562 247.15625 311.386719 L 247.15625 372.242188 L 235.242188 372.242188 L 235.242188 304.046875 L 276.859375 262.449219 C 277.953125 261.351562 278.5625 259.878906 278.5625 258.335938 L 278.5625 209.488281 L 290.472656 209.488281 Z M 90.796875 197.765625 C 102.214844 198.613281 112.820312 192.503906 120.914062 180.890625 C 129.375 168.757812 133.753906 152.480469 133.414062 135.351562 C 133.347656 132.089844 135.972656 129.417969 139.222656 129.417969 L 250.511719 129.417969 C 250.835938 125.164062 251.421875 120.976562 252.28125 116.894531 L 54.820312 116.894531 C 50.101562 136.394531 52.402344 158.894531 61.757812 175.707031 C 65.867188 171.941406 70.324219 168.472656 75.109375 165.367188 C 77.800781 163.617188 81.40625 164.386719 83.152344 167.074219 C 84.902344 169.769531 84.132812 173.367188 81.445312 175.121094 C 76.757812 178.167969 72.417969 181.597656 68.460938 185.351562 C 71.402344 188.734375 74.605469 191.476562 77.988281 193.515625 C 82.71875 188.78125 88.375 184.867188 94.785156 182.089844 C 97.730469 180.8125 101.152344 182.164062 102.4375 185.113281 C 103.707031 188.058594 102.359375 191.476562 99.414062 192.757812 C 96.304688 194.105469 93.417969 195.796875 90.796875 197.765625 Z M 354.421875 135.117188 C 354.792969 154.714844 349.714844 173.382812 339.84375 187.542969 C 329.882812 201.839844 316.597656 209.488281 302.105469 209.488281 L 302.105469 268.082031 C 302.105469 269.625 301.492188 271.105469 300.398438 272.199219 L 258.789062 313.800781 L 258.789062 373.226562 C 258.789062 379.09375 254.003906 383.871094 248.132812 383.871094 L 234.265625 383.871094 C 228.394531 383.871094 223.609375 379.09375 223.609375 373.226562 L 223.609375 301.640625 C 223.609375 300.101562 224.222656 298.617188 225.316406 297.523438 L 266.933594 255.925781 L 266.933594 209.488281 L 92.945312 209.488281 C 88.957031 209.488281 85.054688 208.882812 81.273438 207.703125 C 76.632812 214.496094 74.003906 222.613281 74.003906 231.140625 L 74.003906 302.730469 C 74.003906 305.933594 71.394531 308.542969 68.183594 308.542969 C 64.976562 308.542969 62.371094 305.933594 62.371094 302.730469 L 62.371094 231.140625 C 62.371094 220.851562 65.355469 211.039062 70.667969 202.671875 C 67.070312 200.332031 63.667969 197.414062 60.519531 193.941406 C 47.957031 209.472656 40.882812 228.921875 40.882812 249.417969 L 40.882812 328.449219 C 40.882812 331.660156 38.277344 334.265625 35.066406 334.265625 C 31.847656 334.265625 29.253906 331.660156 29.253906 328.449219 L 29.253906 249.417969 C 29.253906 225.199219 37.960938 202.292969 53.359375 184.367188 C 40.273438 163.261719 37.429688 133.996094 44.800781 109.410156 C 45.535156 106.953125 47.800781 105.261719 50.367188 105.261719 L 259.75 105.261719 C 263.648438 105.261719 266.445312 109.023438 265.328125 112.746094 C 263.730469 118.078125 262.675781 123.667969 262.179688 129.417969 L 348.609375 129.417969 C 351.777344 129.421875 354.359375 131.957031 354.421875 135.117188 Z M 354.421875 135.117188 " fill-opacity="1" fill-rule="evenodd"/></g><g clip-path="url(#b6340a950a)"><g clip-path="url(#da26ad06ad)"><path fill="#000000" d="M 121.5 105.601562 L 128.917969 105.601562 L 128.917969 112.875 L 121.5 112.875 Z M 121.5 105.601562 " fill-opacity="1" fill-rule="nonzero"/></g></g><g clip-path="url(#cc51181119)"><g clip-path="url(#988efbe106)"><path fill="#000000" d="M 250.199219 334.273438 L 258.976562 334.273438 L 258.976562 365.707031 L 250.199219 365.707031 Z M 250.199219 334.273438 " fill-opacity="1" fill-rule="nonzero"/></g></g></svg>