<svg xmlns="http://www.w3.org/2000/svg" xmlns:xlink="http://www.w3.org/1999/xlink" width="512" zoomAndPan="magnify" viewBox="0 0 384 383.999986" height="512" preserveAspectRatio="xMidYMid meet" version="1.0"><defs><clipPath id="f5b966e369"><path d="M 57.5 128.375 L 126.574219 128.375 L 126.574219 167.949219 L 57.5 167.949219 Z M 57.5 128.375 " clip-rule="nonzero"/></clipPath><clipPath id="bdc0ad9ab0"><path d="M 126.226562 131.398438 C 111.375 142.726562 108.300781 144.148438 103.199219 146.625 C 94.726562 150.675781 75.148438 158.699219 68.773438 161.773438 C 66.300781 162.976562 65.101562 163.425781 63.675781 164.550781 C 62.324219 165.449219 61.351562 167.476562 60.226562 167.773438 C 59.476562 167.925781 58.425781 167.625 58.050781 167.101562 C 57.675781 166.648438 57.75 165.300781 58.050781 164.773438 C 58.273438 164.398438 58.648438 164.175781 59.101562 164.101562 C 59.550781 164.023438 60.449219 164.175781 60.824219 164.550781 C 61.199219 164.851562 61.5 165.675781 61.5 166.199219 C 61.425781 166.726562 60.898438 167.476562 60.449219 167.699219 C 60 167.925781 59.101562 167.925781 58.648438 167.625 C 58.125 167.324219 57.523438 166.273438 57.675781 165.523438 C 57.898438 164.324219 59.550781 162.976562 62.023438 161.25 C 69 156.449219 100.199219 144.148438 107.851562 140.25 C 110.476562 138.976562 111.074219 138.75 113.101562 137.398438 C 116.101562 135.375 121.574219 129.148438 123.976562 128.550781 C 124.949219 128.25 126 128.476562 126.375 129 C 126.75 129.449219 126.226562 131.398438 126.226562 131.398438 " clip-rule="nonzero"/></clipPath></defs><path fill="#000000" d="M 85.289062 327.886719 L 76.621094 384.28125 L 103.46875 384.28125 L 103.46875 368.167969 C 103.46875 363.71875 107.074219 360.113281 111.519531 360.113281 C 115.964844 360.113281 119.570312 363.71875 119.570312 368.167969 L 119.570312 384.28125 L 143.726562 384.28125 L 143.726562 368.167969 C 143.726562 363.71875 147.332031 360.113281 151.777344 360.113281 C 156.222656 360.113281 159.828125 363.71875 159.828125 368.167969 L 159.828125 384.28125 L 186.675781 384.28125 L 178.003906 327.886719 Z M 85.289062 327.886719 " fill-opacity="1" fill-rule="nonzero"/><path fill="#000000" d="M 215.054688 255.6875 L 223.320312 270.808594 L 231.585938 255.6875 C 232.324219 254.335938 233.433594 253.226562 234.789062 252.484375 L 249.898438 244.214844 L 234.789062 235.941406 C 233.433594 235.203125 232.324219 234.09375 231.585938 232.738281 L 223.320312 217.617188 L 215.054688 232.738281 C 214.316406 234.09375 213.207031 235.203125 211.851562 235.941406 L 196.742188 244.214844 L 211.851562 252.484375 C 213.203125 253.226562 214.316406 254.335938 215.054688 255.6875 Z M 215.054688 255.6875 " fill-opacity="1" fill-rule="nonzero"/><path fill="#000000" d="M 88.757812 305.34375 L 87.769531 311.773438 L 175.53125 311.773438 L 174.542969 305.34375 C 173.679688 299.730469 168.933594 295.660156 163.257812 295.660156 C 150.34375 295.660156 113.417969 295.660156 100.039062 295.660156 C 94.363281 295.660156 89.617188 299.730469 88.757812 305.34375 Z M 88.757812 305.34375 " fill-opacity="1" fill-rule="nonzero"/><path fill="#000000" d="M 291.738281 207.308594 L 295.785156 214.71875 L 299.835938 207.308594 C 300.574219 205.957031 301.683594 204.84375 303.035156 204.105469 L 310.4375 200.054688 L 303.035156 196.003906 C 301.683594 195.261719 300.574219 194.152344 299.835938 192.800781 L 295.785156 185.390625 L 291.738281 192.800781 C 290.996094 194.152344 289.886719 195.261719 288.535156 196.003906 L 281.132812 200.054688 L 288.535156 204.105469 C 289.886719 204.84375 290.996094 205.957031 291.738281 207.308594 Z M 291.738281 207.308594 " fill-opacity="1" fill-rule="nonzero"/><path fill="#000000" d="M 131.648438 174.804688 C 127.210938 174.804688 123.597656 178.421875 123.597656 182.863281 L 123.597656 279.542969 L 139.699219 279.542969 L 139.699219 182.863281 C 139.699219 178.421875 136.089844 174.804688 131.648438 174.804688 Z M 131.648438 174.804688 " fill-opacity="1" fill-rule="nonzero"/><path fill="#000000" d="M 373.152344 117.960938 L 192.035156 7.003906 L 10.921875 117.960938 C 0.132812 124.570312 0.0390625 140.472656 11.152344 147.035156 C 16.375 150.121094 22.65625 150.210938 27.964844 147.28125 L 188.148438 58.867188 C 190.570312 57.53125 193.507812 57.53125 195.925781 58.867188 L 356.113281 147.28125 C 361.417969 150.210938 367.703125 150.121094 372.921875 147.035156 C 384.03125 140.472656 383.941406 124.570312 373.152344 117.960938 Z M 373.152344 117.960938 " fill-opacity="1" fill-rule="nonzero"/><path fill="#000000" d="M 83.335938 29.785156 L 51.128906 29.785156 L 51.128906 74.433594 L 83.335938 54.703125 Z M 83.335938 29.785156 " fill-opacity="1" fill-rule="nonzero"/><path fill="#000000" d="M 35.027344 161.757812 L 35.027344 384.285156 L 60.328125 384.285156 L 72.839844 302.894531 C 74.917969 289.367188 86.359375 279.546875 100.039062 279.546875 L 107.492188 279.546875 L 107.492188 182.863281 C 107.492188 169.535156 118.328125 158.691406 131.648438 158.691406 C 144.96875 158.691406 155.804688 169.535156 155.804688 182.863281 L 155.804688 279.546875 L 163.257812 279.546875 C 176.9375 279.546875 188.378906 289.367188 190.457031 302.894531 L 202.96875 384.285156 L 349.046875 384.285156 L 349.046875 161.757812 C 347.53125 160.964844 235.238281 98.960938 192.035156 75.121094 C 148.371094 99.21875 36.558594 160.957031 35.027344 161.757812 Z M 260.488281 192.984375 L 278.738281 182.996094 L 288.722656 164.734375 C 291.773438 159.152344 299.800781 159.15625 302.851562 164.734375 L 312.832031 182.996094 L 331.085938 192.984375 C 336.660156 196.039062 336.65625 204.070312 331.085938 207.121094 L 312.832031 217.109375 L 302.851562 235.375 C 299.800781 240.957031 291.769531 240.953125 288.722656 235.375 L 278.738281 217.109375 L 260.488281 207.121094 C 254.910156 204.070312 254.914062 196.035156 260.488281 192.984375 Z M 216.253906 196.960938 C 219.304688 191.378906 227.335938 191.382812 230.382812 196.960938 L 244.582031 222.9375 L 270.542969 237.148438 C 276.121094 240.199219 276.121094 248.234375 270.542969 251.285156 L 244.582031 265.492188 L 230.382812 291.46875 C 227.335938 297.050781 219.304688 297.046875 216.253906 291.46875 L 202.058594 265.492188 L 176.097656 251.285156 C 170.519531 248.234375 170.519531 240.199219 176.097656 237.148438 L 202.058594 222.9375 Z M 216.253906 196.960938 " fill-opacity="1" fill-rule="nonzero"/><g clip-path="url(#f5b966e369)"><g clip-path="url(#bdc0ad9ab0)"><path fill="#000000" d="M 54.675781 125.550781 L 129.402344 125.550781 L 129.402344 170.773438 L 54.675781 170.773438 Z M 54.675781 125.550781 " fill-opacity="1" fill-rule="nonzero"/></g></g></svg>