<svg xmlns="http://www.w3.org/2000/svg" xmlns:xlink="http://www.w3.org/1999/xlink" width="512" zoomAndPan="magnify" viewBox="0 0 384 383.999986" height="512" preserveAspectRatio="xMidYMid meet" version="1.0"><defs><clipPath id="dd36082353"><path d="M 110 84.109375 L 332.324219 84.109375 L 332.324219 383.796875 L 110 383.796875 Z M 110 84.109375 " clip-rule="nonzero"/></clipPath><clipPath id="ff77763980"><path d="M 154.472656 98.101562 L 155.953125 98.101562 L 155.953125 99.324219 L 154.472656 99.324219 Z M 154.472656 98.101562 " clip-rule="nonzero"/></clipPath><clipPath id="17e8fb425a"><path d="M 155.925781 98.550781 C 155.25 99.523438 154.648438 99.375 154.574219 99.148438 C 154.425781 98.925781 154.5 98.324219 154.726562 98.175781 C 154.949219 98.023438 155.699219 98.25 155.699219 98.25 " clip-rule="nonzero"/></clipPath><clipPath id="fbec0e7e6a"><path d="M 156.332031 102.378906 L 157.75 102.378906 L 157.75 103.628906 L 156.332031 103.628906 Z M 156.332031 102.378906 " clip-rule="nonzero"/></clipPath><clipPath id="7531c3155e"><path d="M 157.726562 102.824219 C 157.125 103.875 156.523438 103.648438 156.375 103.425781 C 156.300781 103.199219 156.375 102.601562 156.601562 102.449219 C 156.75 102.300781 157.574219 102.523438 157.574219 102.523438 " clip-rule="nonzero"/></clipPath><clipPath id="685169bab9"><path d="M 238.472656 366.125 L 269.371094 366.125 L 269.371094 370.667969 L 238.472656 370.667969 Z M 238.472656 366.125 " clip-rule="nonzero"/></clipPath><clipPath id="b1c1cadf28"><path d="M 239.550781 366.148438 C 250.949219 368.398438 263.324219 366.976562 266.851562 367.949219 C 268.125 368.324219 269.023438 368.851562 269.25 369.449219 C 269.398438 369.824219 269.101562 370.574219 268.875 370.574219 C 268.648438 370.648438 267.898438 369.75 267.976562 369.601562 C 268.050781 369.449219 269.25 369.375 269.324219 369.523438 C 269.476562 369.75 269.023438 370.574219 268.726562 370.648438 C 268.273438 370.726562 267.824219 369.675781 266.699219 369.375 C 263.476562 368.476562 250.875 369.898438 245.851562 369.300781 C 242.851562 368.925781 239.851562 368.25 238.949219 367.5 C 238.574219 367.199219 238.425781 366.824219 238.5 366.601562 C 238.574219 366.375 239.550781 366.148438 239.550781 366.148438 " clip-rule="nonzero"/></clipPath></defs><g clip-path="url(#dd36082353)"><path fill="#000000" d="M 317.246094 286.089844 L 300.464844 289.808594 C 297.0625 290.550781 294.382812 293.09375 293.445312 296.457031 L 275.921875 359.449219 C 275.179688 362.167969 275.667969 365.023438 277.25 367.328125 C 278.210938 368.699219 279.5 369.792969 280.988281 370.476562 L 280.949219 370.714844 L 219.617188 358.3125 L 219.988281 356.671875 L 254.410156 363.4375 C 259.414062 364.414062 264.34375 361.148438 265.398438 356.144531 L 279.832031 287.714844 C 280.4375 284.957031 279.753906 282.121094 278.015625 279.910156 L 235.398438 226.285156 L 250.554688 211.128906 L 319.648438 267.746094 Z M 237.375 248.855469 L 254.46875 270.386719 C 251.300781 290.160156 238.585938 309.421875 227.871094 325.675781 C 222.667969 333.574219 235.378906 340.949219 240.5625 333.085938 C 249.929688 318.867188 260.746094 302.1875 266.085938 284.996094 L 267.316406 286.542969 L 253.804688 350.570312 L 223.15625 344.566406 C 210.191406 300.621094 228.398438 263.484375 237.375 248.855469 Z M 172.328125 153.867188 L 179.292969 146.886719 L 238.195312 205.8125 L 231.234375 212.773438 Z M 158.210938 150.289062 L 124.101562 116.183594 L 141.605469 98.679688 L 175.714844 132.785156 L 166.972656 141.546875 Z M 328.921875 259.160156 L 256.304688 199.671875 C 253.863281 197.695312 250.773438 197.128906 247.9375 197.871094 L 187.9375 137.871094 C 190.261719 134.195312 189.832031 129.246094 186.625 126.019531 L 148.371094 87.765625 C 144.636719 84.050781 138.574219 84.03125 134.839844 87.765625 L 113.210938 109.414062 C 111.390625 111.214844 110.394531 113.621094 110.394531 116.183594 C 110.394531 118.726562 111.390625 121.128906 113.210938 122.949219 L 151.460938 161.203125 C 153.320312 163.058594 155.765625 164 158.210938 164 C 159.988281 164 161.75 163.488281 163.3125 162.511719 L 222.785156 222.003906 C 221.28125 225.152344 221.59375 229.003906 223.882812 231.898438 L 229.140625 238.488281 C 220.28125 251.496094 195.757812 293.992188 210.738281 346.71875 C 209.703125 347.871094 208.902344 349.277344 208.507812 350.902344 L 206.710938 358.570312 C 206.125 361.011719 206.574219 363.652344 207.941406 365.785156 C 209.3125 367.917969 211.519531 369.421875 213.984375 369.929688 L 281.691406 383.621094 C 282.296875 383.738281 282.921875 383.796875 283.546875 383.796875 C 285.464844 383.796875 287.382812 383.210938 288.964844 382.074219 C 291.078125 380.609375 292.484375 378.28125 292.859375 375.738281 L 293.738281 369.558594 C 294.109375 367.015625 293.386719 364.414062 291.78125 362.402344 C 290.960938 361.363281 289.925781 360.503906 288.769531 359.898438 L 304.984375 301.601562 L 322.054688 297.824219 C 325.890625 296.964844 328.824219 293.777344 329.351562 289.886719 L 332.265625 267.667969 C 332.695312 264.421875 331.441406 261.234375 328.921875 259.160156 " fill-opacity="1" fill-rule="nonzero"/></g><path fill="#000000" d="M 84.207031 85.714844 C 77.851562 79.355469 71.945312 71.886719 62.519531 70.457031 C 50.121094 68.601562 38.308594 77.382812 36.449219 89.742188 C 34.6875 101.554688 42.316406 108.808594 49.886719 116.378906 C 55.574219 122.089844 64.414062 113.25 58.726562 107.558594 C 53.992188 102.84375 46.558594 97.386719 49.199219 89.722656 C 52.800781 79.257812 63.261719 82.878906 69.148438 88.332031 C 77.167969 95.765625 84.65625 103.84375 92.382812 111.566406 C 98.074219 117.257812 106.914062 108.417969 101.203125 102.726562 C 95.53125 97.054688 89.878906 91.382812 84.207031 85.714844 " fill-opacity="1" fill-rule="nonzero"/><path fill="#000000" d="M 123.085938 80.84375 C 128.777344 86.535156 137.617188 77.714844 131.925781 72.023438 C 123.027344 63.125 114.128906 54.226562 105.230469 45.328125 C 101.945312 42.042969 97.722656 38.816406 94.964844 35.0625 C 89.976562 28.253906 92.382812 16.460938 102.511719 16.460938 C 108.183594 16.460938 111.800781 21.253906 115.300781 24.753906 C 120.992188 30.445312 129.832031 21.605469 124.140625 15.914062 C 115.125 6.898438 104.234375 -0.121094 91.460938 6.859375 C 78.300781 14.039062 75.71875 31.070312 84.929688 42.453125 C 96.117188 56.300781 110.492188 68.269531 123.085938 80.84375 " fill-opacity="1" fill-rule="nonzero"/><path fill="#000000" d="M 115.949219 87.980469 C 93.4375 65.472656 70.910156 42.941406 48.398438 20.433594 C 42.707031 14.722656 33.847656 23.5625 39.558594 29.253906 C 62.070312 51.78125 84.597656 74.292969 107.109375 96.820312 C 112.800781 102.511719 121.65625 93.671875 115.949219 87.980469 " fill-opacity="1" fill-rule="nonzero"/><g clip-path="url(#ff77763980)"><g clip-path="url(#17e8fb425a)"><path fill="#000000" d="M 151.574219 95.175781 L 158.992188 95.175781 L 158.992188 102.449219 L 151.574219 102.449219 Z M 151.574219 95.175781 " fill-opacity="1" fill-rule="nonzero"/></g></g><g clip-path="url(#fbec0e7e6a)"><g clip-path="url(#7531c3155e)"><path fill="#000000" d="M 153.375 99.449219 L 160.792969 99.449219 L 160.792969 106.726562 L 153.375 106.726562 Z M 153.375 99.449219 " fill-opacity="1" fill-rule="nonzero"/></g></g><g clip-path="url(#685169bab9)"><g clip-path="url(#b1c1cadf28)"><path fill="#000000" d="M 235.5 363.148438 L 272.386719 363.148438 L 272.386719 373.726562 L 235.5 373.726562 Z M 235.5 363.148438 " fill-opacity="1" fill-rule="nonzero"/></g></g></svg>