<svg xmlns="http://www.w3.org/2000/svg" xmlns:xlink="http://www.w3.org/1999/xlink" width="512" zoomAndPan="magnify" viewBox="0 0 384 383.999986" height="512" preserveAspectRatio="xMidYMid meet" version="1.0"><defs><clipPath id="804c219cde"><path d="M 3 126.480469 L 381 126.480469 L 381 257.730469 L 3 257.730469 Z M 3 126.480469 " clip-rule="nonzero"/></clipPath><clipPath id="5c12882227"><path d="M 158.777344 157.578125 L 160.226562 157.578125 L 160.226562 158.828125 L 158.777344 158.828125 Z M 158.777344 157.578125 " clip-rule="nonzero"/></clipPath><clipPath id="f34d0cbef2"><path d="M 160.199219 158.023438 C 159.601562 159.074219 159 158.851562 158.851562 158.625 C 158.699219 158.476562 158.851562 157.800781 159 157.648438 C 159.226562 157.5 160.050781 157.726562 160.050781 157.726562 " clip-rule="nonzero"/></clipPath><clipPath id="faa93a2c79"><path d="M 115.191406 153.214844 L 165.140625 153.214844 L 165.140625 180.53125 L 115.191406 180.53125 Z M 115.191406 153.214844 " clip-rule="nonzero"/></clipPath><clipPath id="bb30e95423"><path d="M 115.726562 179.023438 C 132.074219 173.925781 140.925781 170.101562 145.726562 167.550781 C 148.726562 165.976562 150.300781 165 152.851562 163.050781 C 156.300781 160.5 162.449219 153.226562 164.101562 153.300781 C 164.625 153.300781 165.148438 154.050781 165.074219 154.199219 C 165 154.425781 163.875 154.5 163.726562 154.351562 C 163.648438 154.199219 164.324219 153.226562 164.550781 153.226562 C 164.699219 153.300781 165.074219 153.976562 164.851562 154.574219 C 164.25 156.449219 157.125 161.773438 153.75 164.324219 C 151.125 166.273438 149.476562 167.324219 146.324219 168.976562 C 141.449219 171.523438 132.523438 175.351562 126.976562 177.375 C 122.851562 178.875 117.523438 180.75 116.023438 180.449219 C 115.574219 180.375 115.273438 180.148438 115.199219 179.851562 C 115.125 179.625 115.726562 179.023438 115.726562 179.023438 " clip-rule="nonzero"/></clipPath><clipPath id="14ce1ff21c"><path d="M 260.542969 186.367188 L 318.554688 186.367188 L 318.554688 213.683594 L 260.542969 213.683594 Z M 260.542969 186.367188 " clip-rule="nonzero"/></clipPath><clipPath id="405966f8d7"><path d="M 261.375 186.375 C 271.949219 187.800781 273.523438 188.550781 276.449219 189.976562 C 282.300781 192.824219 293.851562 200.925781 301.5 204.824219 C 307.5 207.976562 317.476562 210.449219 318.226562 212.25 C 318.375 212.773438 317.851562 213.601562 317.699219 213.601562 C 317.476562 213.601562 316.949219 212.925781 317.023438 212.699219 C 317.101562 212.476562 317.925781 212.101562 318.148438 212.25 C 318.375 212.324219 318.523438 212.851562 318.449219 213.074219 C 318.375 213.300781 318 213.523438 317.476562 213.601562 C 315.675781 213.601562 309.976562 210.75 305.023438 208.273438 C 297.226562 204.375 282.148438 194.476562 275.851562 191.324219 C 272.925781 189.898438 271.648438 189.300781 269.324219 188.699219 C 266.773438 188.023438 262.125 188.476562 261.074219 187.800781 C 260.699219 187.574219 260.550781 187.199219 260.550781 186.976562 C 260.625 186.675781 261.375 186.375 261.375 186.375 " clip-rule="nonzero"/></clipPath></defs><g clip-path="url(#804c219cde)"><path fill="#000000" d="M 192.070312 126.589844 L 192 126.707031 L 191.929688 126.589844 L 83.429688 190.683594 L 83.429688 165.136719 L 48.613281 165.136719 L 48.613281 211.164062 L 48.730469 211.164062 L 3.992188 237.59375 L 15.78125 257.625 L 192 153.539062 L 368.21875 257.625 L 380.011719 237.59375 Z M 192.070312 126.589844 " fill-opacity="1" fill-rule="nonzero"/></g><g clip-path="url(#5c12882227)"><g clip-path="url(#f34d0cbef2)"><path fill="#000000" d="M 155.851562 154.648438 L 163.265625 154.648438 L 163.265625 161.925781 L 155.851562 161.925781 Z M 155.851562 154.648438 " fill-opacity="1" fill-rule="nonzero"/></g></g><g clip-path="url(#faa93a2c79)"><g clip-path="url(#bb30e95423)"><path fill="#000000" d="M 112.199219 150.226562 L 168.132812 150.226562 L 168.132812 183.523438 L 112.199219 183.523438 Z M 112.199219 150.226562 " fill-opacity="1" fill-rule="nonzero"/></g></g><g clip-path="url(#14ce1ff21c)"><g clip-path="url(#405966f8d7)"><path fill="#000000" d="M 257.550781 183.375 L 321.417969 183.375 L 321.417969 216.675781 L 257.550781 216.675781 Z M 257.550781 183.375 " fill-opacity="1" fill-rule="nonzero"/></g></g></svg>