<svg xmlns="http://www.w3.org/2000/svg" xmlns:xlink="http://www.w3.org/1999/xlink" width="512" zoomAndPan="magnify" viewBox="0 0 384 383.999986" height="512" preserveAspectRatio="xMidYMid meet" version="1.0"><defs><clipPath id="0a57ce4612"><path d="M 0 48.363281 L 384 48.363281 L 384 355.863281 L 0 355.863281 Z M 0 48.363281 " clip-rule="nonzero"/></clipPath><clipPath id="1d56f486c4"><path d="M 59.679688 344.890625 L 61.15625 344.890625 L 61.15625 346.113281 L 59.679688 346.113281 Z M 59.679688 344.890625 " clip-rule="nonzero"/></clipPath><clipPath id="915f4de719"><path d="M 61.148438 345.335938 C 60.472656 346.3125 59.875 346.164062 59.722656 345.9375 C 59.648438 345.710938 59.722656 345.113281 59.949219 344.960938 C 60.097656 344.8125 60.921875 345.039062 60.921875 345.039062 " clip-rule="nonzero"/></clipPath><clipPath id="46437a0fcd"><path d="M 323.660156 270.9375 L 327.710938 270.9375 L 327.710938 308.109375 L 323.660156 308.109375 Z M 323.660156 270.9375 " clip-rule="nonzero"/></clipPath><clipPath id="e92acfdcbf"><path d="M 325.273438 271.648438 C 326.773438 286.875 325.574219 301.125 326.476562 304.875 C 326.773438 306.148438 327.75 306.675781 327.675781 307.199219 C 327.675781 307.574219 327.300781 308.023438 327 308.101562 C 326.773438 308.101562 326.175781 307.574219 326.175781 307.351562 C 326.175781 307.125 326.699219 306.601562 327 306.601562 C 327.226562 306.601562 327.75 307.125 327.675781 307.351562 C 327.675781 307.648438 327 308.101562 326.625 308.023438 C 326.023438 307.800781 325.351562 306.449219 324.976562 304.875 C 323.925781 300.675781 325.273438 286.949219 324.898438 280.875 C 324.675781 277.050781 323.324219 272.925781 323.773438 271.648438 C 323.925781 271.273438 324.226562 270.976562 324.449219 270.976562 C 324.75 270.976562 325.273438 271.648438 325.273438 271.648438 " clip-rule="nonzero"/></clipPath></defs><g clip-path="url(#0a57ce4612)"><path fill="#000000" d="M 351.996094 259.792969 C 350.171875 257.34375 348.023438 255.191406 345.574219 253.363281 C 348.023438 251.535156 350.171875 249.382812 351.996094 246.933594 C 353.824219 249.382812 355.972656 251.535156 358.421875 253.363281 C 355.972656 255.191406 353.824219 257.34375 351.996094 259.792969 Z M 319.996094 304.613281 L 319.996094 343.050781 L 188.25 343.050781 L 234.925781 296.328125 C 237.425781 293.828125 237.425781 289.773438 234.925781 287.269531 C 232.425781 284.769531 228.375 284.769531 225.875 287.269531 L 170.148438 343.050781 L 149.851562 343.050781 L 234.925781 257.890625 C 237.425781 255.390625 237.425781 251.335938 234.925781 248.832031 C 232.425781 246.332031 228.375 246.332031 225.875 248.832031 L 131.75 343.050781 L 64.003906 343.050781 L 64.003906 61.175781 L 253.347656 61.175781 L 206.675781 107.894531 C 204.175781 110.398438 204.175781 114.453125 206.675781 116.953125 C 207.925781 118.207031 209.550781 118.832031 211.199219 118.832031 C 212.851562 118.832031 214.476562 118.207031 215.726562 116.953125 L 271.449219 61.175781 L 291.75 61.175781 L 206.675781 146.332031 C 204.175781 148.835938 204.175781 152.890625 206.675781 155.390625 C 207.925781 156.644531 209.550781 157.269531 211.199219 157.269531 C 212.851562 157.269531 214.476562 156.644531 215.726562 155.390625 L 309.847656 61.175781 L 319.996094 61.175781 Z M 32.003906 163.699219 C 30.175781 161.25 28.003906 159.097656 25.578125 157.269531 C 28.003906 155.441406 30.175781 153.289062 32.003906 150.839844 C 33.828125 153.289062 36.003906 155.441406 38.425781 157.269531 C 36.003906 159.097656 33.828125 161.25 32.003906 163.699219 Z M 377.597656 246.957031 C 366.996094 246.957031 358.398438 238.347656 358.398438 227.738281 C 358.398438 224.210938 355.523438 221.332031 351.996094 221.332031 C 348.472656 221.332031 345.597656 224.210938 345.597656 227.738281 C 345.597656 236.070312 340.222656 243.128906 332.796875 245.78125 L 332.796875 54.769531 C 332.796875 51.242188 329.921875 48.363281 326.398438 48.363281 L 57.601562 48.363281 C 54.078125 48.363281 51.203125 51.242188 51.203125 54.769531 L 51.203125 149.6875 C 43.777344 147.035156 38.402344 139.976562 38.402344 131.644531 C 38.402344 128.117188 35.527344 125.238281 32.003906 125.238281 C 28.476562 125.238281 25.601562 128.117188 25.601562 131.644531 C 25.601562 142.253906 17.003906 150.863281 6.402344 150.863281 C 2.878906 150.863281 0.00390625 153.742188 0.00390625 157.269531 C 0.00390625 160.796875 2.878906 163.675781 6.402344 163.675781 C 17.003906 163.675781 25.601562 172.285156 25.601562 182.894531 C 25.601562 186.421875 28.476562 189.300781 32.003906 189.300781 C 35.527344 189.300781 38.402344 186.421875 38.402344 182.894531 C 38.402344 174.5625 43.777344 167.503906 51.203125 164.851562 L 51.203125 349.457031 C 51.203125 352.984375 54.078125 355.863281 57.601562 355.863281 L 326.398438 355.863281 C 329.921875 355.863281 332.796875 352.984375 332.796875 349.457031 L 332.796875 260.945312 C 340.222656 263.597656 345.597656 270.65625 345.597656 278.988281 C 345.597656 282.515625 348.472656 285.394531 351.996094 285.394531 C 355.523438 285.394531 358.398438 282.515625 358.398438 278.988281 C 358.398438 268.378906 366.996094 259.769531 377.597656 259.769531 C 381.121094 259.769531 383.996094 256.890625 383.996094 253.363281 C 383.996094 249.835938 381.121094 246.957031 377.597656 246.957031 " fill-opacity="1" fill-rule="nonzero"/></g><path fill="#000000" d="M 288 311.042969 C 286.171875 308.59375 284.023438 306.441406 281.574219 304.613281 C 284.023438 302.785156 286.171875 300.632812 288 298.183594 C 289.824219 300.632812 291.972656 302.785156 294.421875 304.613281 C 291.972656 306.441406 289.824219 308.59375 288 311.042969 Z M 313.597656 298.207031 C 303 298.207031 294.398438 289.597656 294.398438 278.988281 C 294.398438 275.460938 291.523438 272.582031 288 272.582031 C 284.472656 272.582031 281.597656 275.460938 281.597656 278.988281 C 281.597656 289.597656 273 298.207031 262.398438 298.207031 C 258.875 298.207031 256 301.085938 256 304.613281 C 256 308.140625 258.875 311.019531 262.398438 311.019531 C 273 311.019531 281.597656 319.628906 281.597656 330.238281 C 281.597656 333.765625 284.472656 336.644531 288 336.644531 C 291.523438 336.644531 294.398438 333.765625 294.398438 330.238281 C 294.398438 319.628906 303 311.019531 313.597656 311.019531 C 317.125 311.019531 319.996094 308.140625 319.996094 304.613281 C 319.996094 301.085938 317.125 298.207031 313.597656 298.207031 " fill-opacity="1" fill-rule="nonzero"/><path fill="#000000" d="M 96 99.589844 C 97.828125 102.039062 99.976562 104.191406 102.425781 106.019531 C 99.976562 107.847656 97.828125 110 96 112.449219 C 94.175781 110 92.027344 107.847656 89.578125 106.019531 C 92.027344 104.191406 94.175781 102.039062 96 99.589844 Z M 70.402344 112.425781 C 81 112.425781 89.601562 121.035156 89.601562 131.644531 C 89.601562 135.171875 92.476562 138.050781 96 138.050781 C 99.527344 138.050781 102.402344 135.171875 102.402344 131.644531 C 102.402344 121.035156 111 112.425781 121.601562 112.425781 C 125.125 112.425781 128 109.546875 128 106.019531 C 128 102.492188 125.125 99.613281 121.601562 99.613281 C 111 99.613281 102.402344 91.003906 102.402344 80.394531 C 102.402344 76.867188 99.527344 73.988281 96 73.988281 C 92.476562 73.988281 89.601562 76.867188 89.601562 80.394531 C 89.601562 91.003906 81 99.613281 70.402344 99.613281 C 66.875 99.613281 64.003906 102.492188 64.003906 106.019531 C 64.003906 109.546875 66.875 112.425781 70.402344 112.425781 " fill-opacity="1" fill-rule="nonzero"/><g clip-path="url(#1d56f486c4)"><g clip-path="url(#915f4de719)"><path fill="#000000" d="M 56.722656 341.960938 L 64.140625 341.960938 L 64.140625 349.238281 L 56.722656 349.238281 Z M 56.722656 341.960938 " fill-opacity="1" fill-rule="nonzero"/></g></g><g clip-path="url(#46437a0fcd)"><g clip-path="url(#e92acfdcbf)"><path fill="#000000" d="M 320.773438 267.976562 L 330.75 267.976562 L 330.75 311.109375 L 320.773438 311.109375 Z M 320.773438 267.976562 " fill-opacity="1" fill-rule="nonzero"/></g></g></svg>