<svg xmlns="http://www.w3.org/2000/svg" xmlns:xlink="http://www.w3.org/1999/xlink" width="200" zoomAndPan="magnify" viewBox="0 0 150 127.500001" height="170" preserveAspectRatio="xMidYMid meet" version="1.0"><defs><g/><clipPath id="96a65741b4"><path d="M 75.347656 21.484375 L 112.648438 21.484375 L 112.648438 73.789062 L 75.347656 73.789062 Z M 75.347656 21.484375 " clip-rule="nonzero"/></clipPath><clipPath id="f98a66969b"><path d="M 112.648438 47.585938 L 75.347656 73.691406 L 75.347656 21.484375 Z M 112.648438 47.585938 " clip-rule="nonzero"/></clipPath><clipPath id="aad6afb434"><path d="M 56.269531 21.480469 L 93.996094 21.480469 L 93.996094 73.792969 L 56.269531 73.792969 Z M 56.269531 21.480469 " clip-rule="nonzero"/></clipPath><clipPath id="743c58b9ab"><path d="M 93.996094 47.585938 L 56.269531 73.691406 L 56.269531 21.480469 Z M 93.996094 47.585938 " clip-rule="nonzero"/></clipPath><clipPath id="e31b348ac1"><path d="M 37.769531 21.484375 L 75.136719 21.484375 L 75.136719 73.738281 L 37.769531 73.738281 Z M 37.769531 21.484375 " clip-rule="nonzero"/></clipPath><clipPath id="2828f44afb"><path d="M 75.136719 47.589844 L 37.769531 73.695312 L 37.769531 21.484375 Z M 75.136719 47.589844 " clip-rule="nonzero"/></clipPath></defs><g clip-path="url(#96a65741b4)"><g clip-path="url(#f98a66969b)"><path fill="#5ce1e6" d="M 112.648438 21.484375 L 112.648438 73.644531 L 75.347656 73.644531 L 75.347656 21.484375 Z M 112.648438 21.484375 " fill-opacity="1" fill-rule="nonzero"/></g></g><g clip-path="url(#aad6afb434)"><g clip-path="url(#743c58b9ab)"><path fill="#8ad931" d="M 93.996094 21.480469 L 93.996094 73.648438 L 56.269531 73.648438 L 56.269531 21.480469 Z M 93.996094 21.480469 " fill-opacity="1" fill-rule="nonzero"/></g></g><g clip-path="url(#e31b348ac1)"><g clip-path="url(#2828f44afb)"><path fill="#0a46ac" d="M 75.136719 21.484375 L 75.136719 73.738281 L 37.769531 73.738281 L 37.769531 21.484375 Z M 75.136719 21.484375 " fill-opacity="1" fill-rule="nonzero"/></g></g><g fill="#000000" fill-opacity="1"><g transform="translate(28.774242, 101.336566)"><g><path d="M 0.390625 0 L 2.59375 -22.703125 L 10.28125 -22.703125 L 12.453125 0 L 8.140625 0 L 7.828125 -3.671875 L 5.078125 -3.671875 L 4.8125 0 Z M 5.421875 -7.296875 L 7.484375 -7.296875 L 6.484375 -18.84375 L 6.265625 -18.84375 Z M 5.421875 -7.296875 "/></g></g></g><g fill="#000000" fill-opacity="1"><g transform="translate(41.59168, 101.336566)"><g><path d="M 8.40625 0.21875 C 7.132812 0.21875 6.226562 -0.539062 5.6875 -2.0625 L 5.6875 0 L 0.921875 0 L 0.921875 -22.84375 L 5.6875 -22.84375 L 5.6875 -18.421875 C 6.425781 -19.179688 7.289062 -19.5625 8.28125 -19.5625 C 9.769531 -19.5625 10.84375 -19.113281 11.5 -18.21875 C 12.15625 -17.332031 12.484375 -16.050781 12.484375 -14.375 L 12.484375 -5.046875 C 12.484375 -3.460938 12.144531 -2.1875 11.46875 -1.21875 C 10.800781 -0.257812 9.78125 0.21875 8.40625 0.21875 Z M 6.84375 -3.390625 C 7.164062 -3.390625 7.390625 -3.488281 7.515625 -3.6875 C 7.648438 -3.882812 7.726562 -4.140625 7.75 -4.453125 C 7.78125 -4.765625 7.796875 -5.242188 7.796875 -5.890625 L 7.796875 -13.953125 C 7.796875 -14.640625 7.734375 -15.148438 7.609375 -15.484375 C 7.484375 -15.828125 7.222656 -16 6.828125 -16 C 6.378906 -16 6.078125 -15.828125 5.921875 -15.484375 C 5.765625 -15.148438 5.6875 -14.660156 5.6875 -14.015625 L 5.6875 -5.890625 C 5.6875 -5.046875 5.753906 -4.414062 5.890625 -4 C 6.035156 -3.59375 6.351562 -3.390625 6.84375 -3.390625 Z M 6.84375 -3.390625 "/></g></g></g><g fill="#000000" fill-opacity="1"><g transform="translate(54.831955, 101.336566)"><g><path d="M 6.234375 0.21875 C 2.410156 0.21875 0.5 -1.722656 0.5 -5.609375 L 0.53125 -7.140625 L 5.15625 -7.140625 L 5.1875 -4.859375 C 5.1875 -4.398438 5.269531 -4.050781 5.4375 -3.8125 C 5.613281 -3.582031 5.90625 -3.46875 6.3125 -3.46875 C 6.9375 -3.46875 7.25 -3.96875 7.25 -4.96875 C 7.25 -5.707031 7.101562 -6.285156 6.8125 -6.703125 C 6.519531 -7.128906 6.054688 -7.582031 5.421875 -8.0625 L 2.96875 -9.96875 C 2.113281 -10.613281 1.5 -11.285156 1.125 -11.984375 C 0.757812 -12.679688 0.578125 -13.664062 0.578125 -14.9375 C 0.578125 -15.925781 0.835938 -16.765625 1.359375 -17.453125 C 1.878906 -18.148438 2.570312 -18.675781 3.4375 -19.03125 C 4.300781 -19.382812 5.257812 -19.5625 6.3125 -19.5625 C 10.070312 -19.5625 11.953125 -17.691406 11.953125 -13.953125 L 11.953125 -13.59375 L 7.171875 -13.59375 L 7.171875 -14.328125 C 7.171875 -14.785156 7.09375 -15.175781 6.9375 -15.5 C 6.789062 -15.832031 6.539062 -16 6.1875 -16 C 5.863281 -16 5.617188 -15.90625 5.453125 -15.71875 C 5.285156 -15.53125 5.203125 -15.28125 5.203125 -14.96875 C 5.203125 -14.257812 5.476562 -13.710938 6.03125 -13.328125 L 8.890625 -11.234375 C 9.910156 -10.472656 10.691406 -9.644531 11.234375 -8.75 C 11.785156 -7.863281 12.0625 -6.742188 12.0625 -5.390625 C 12.0625 -3.597656 11.546875 -2.210938 10.515625 -1.234375 C 9.492188 -0.265625 8.066406 0.21875 6.234375 0.21875 Z M 6.234375 0.21875 "/></g></g></g><g fill="#000000" fill-opacity="1"><g transform="translate(67.385109, 101.336566)"><g><path d="M 6.5625 0.21875 C 2.695312 0.21875 0.765625 -1.785156 0.765625 -5.796875 L 0.765625 -13.5625 C 0.765625 -15.394531 1.28125 -16.851562 2.3125 -17.9375 C 3.34375 -19.019531 4.757812 -19.5625 6.5625 -19.5625 C 8.351562 -19.5625 9.765625 -19.019531 10.796875 -17.9375 C 11.828125 -16.851562 12.34375 -15.394531 12.34375 -13.5625 L 12.34375 -5.796875 C 12.34375 -1.785156 10.414062 0.21875 6.5625 0.21875 Z M 6.5625 -3.359375 C 6.925781 -3.359375 7.195312 -3.488281 7.375 -3.75 C 7.550781 -4.019531 7.640625 -4.382812 7.640625 -4.84375 L 7.640625 -14.296875 C 7.640625 -15.429688 7.28125 -16 6.5625 -16 C 5.832031 -16 5.46875 -15.429688 5.46875 -14.296875 L 5.46875 -4.84375 C 5.46875 -4.382812 5.554688 -4.019531 5.734375 -3.75 C 5.910156 -3.488281 6.1875 -3.359375 6.5625 -3.359375 Z M 6.5625 -3.359375 "/></g></g></g><g fill="#000000" fill-opacity="1"><g transform="translate(80.519678, 101.336566)"><g><path d="M 0.921875 0 L 0.921875 -22.84375 L 5.625 -22.84375 L 5.625 0 Z M 0.921875 0 "/></g></g></g><g fill="#000000" fill-opacity="1"><g transform="translate(87.073745, 101.336566)"><g><path d="M 4.65625 0.21875 C 3.207031 0.21875 2.210938 -0.210938 1.671875 -1.078125 C 1.140625 -1.941406 0.875 -3.226562 0.875 -4.9375 L 0.875 -19.359375 L 5.53125 -19.359375 L 5.53125 -5.875 C 5.53125 -5.75 5.53125 -5.414062 5.53125 -4.875 C 5.53125 -4.34375 5.613281 -3.960938 5.78125 -3.734375 C 5.945312 -3.515625 6.207031 -3.40625 6.5625 -3.40625 C 7.03125 -3.40625 7.328125 -3.601562 7.453125 -4 C 7.578125 -4.394531 7.640625 -4.960938 7.640625 -5.703125 L 7.640625 -5.875 L 7.671875 -19.359375 L 12.265625 -19.359375 L 12.265625 0 L 7.640625 0 L 7.640625 -2.0625 C 7.328125 -1.25 6.957031 -0.664062 6.53125 -0.3125 C 6.101562 0.0390625 5.476562 0.21875 4.65625 0.21875 Z M 4.65625 0.21875 "/></g></g></g><g fill="#000000" fill-opacity="1"><g transform="translate(100.261172, 101.336566)"><g><path d="M 4.921875 0.21875 C 3.703125 0.21875 2.863281 -0.0351562 2.40625 -0.546875 C 1.945312 -1.066406 1.71875 -1.890625 1.71875 -3.015625 L 1.71875 -15.09375 L 0.421875 -15.09375 L 0.421875 -18.609375 L 1.71875 -18.609375 L 1.71875 -22.703125 L 6.21875 -22.703125 L 6.21875 -18.609375 L 7.53125 -18.609375 L 7.53125 -15.09375 L 6.21875 -15.09375 L 6.21875 -4.234375 C 6.21875 -3.898438 6.242188 -3.648438 6.296875 -3.484375 C 6.347656 -3.328125 6.488281 -3.25 6.71875 -3.25 C 6.894531 -3.25 7.0625 -3.257812 7.21875 -3.28125 C 7.375 -3.300781 7.476562 -3.3125 7.53125 -3.3125 L 7.53125 -0.125 C 7.269531 -0.0625 6.882812 0.0078125 6.375 0.09375 C 5.875 0.175781 5.390625 0.21875 4.921875 0.21875 Z M 4.921875 0.21875 "/></g></g></g><g fill="#000000" fill-opacity="1"><g transform="translate(108.321622, 101.336566)"><g><path d="M 6.34375 0.21875 C 4.351562 0.21875 2.925781 -0.328125 2.0625 -1.421875 C 1.195312 -2.515625 0.765625 -4.144531 0.765625 -6.3125 L 0.765625 -14.09375 C 0.765625 -15.875 1.273438 -17.226562 2.296875 -18.15625 C 3.316406 -19.09375 4.742188 -19.5625 6.578125 -19.5625 C 10.296875 -19.5625 12.15625 -17.738281 12.15625 -14.09375 L 12.15625 -12.6875 C 12.15625 -11.28125 12.140625 -10.132812 12.109375 -9.25 L 5.390625 -9.25 L 5.390625 -5.5 C 5.390625 -4.832031 5.457031 -4.304688 5.59375 -3.921875 C 5.738281 -3.546875 6.039062 -3.359375 6.5 -3.359375 C 6.851562 -3.359375 7.101562 -3.460938 7.25 -3.671875 C 7.40625 -3.878906 7.492188 -4.117188 7.515625 -4.390625 C 7.546875 -4.671875 7.5625 -5.078125 7.5625 -5.609375 L 7.5625 -7.484375 L 12.15625 -7.484375 L 12.15625 -6.375 C 12.15625 -4.113281 11.71875 -2.445312 10.84375 -1.375 C 9.976562 -0.3125 8.476562 0.21875 6.34375 0.21875 Z M 7.5625 -11.546875 L 7.5625 -14.03125 C 7.5625 -15.425781 7.21875 -16.125 6.53125 -16.125 C 5.75 -16.125 5.359375 -15.425781 5.359375 -14.03125 L 5.359375 -11.546875 Z M 7.5625 -11.546875 "/></g></g></g><g fill="#000000" fill-opacity="1"><g transform="translate(35.228066, 112.674804)"><g><path d="M 2.804688 0.0703125 C 3.988281 0.0703125 4.761719 -0.578125 4.929688 -1.609375 L 4.230469 -1.609375 C 4.101562 -0.878906 3.554688 -0.503906 2.789062 -0.503906 C 1.605469 -0.503906 0.988281 -1.414062 0.988281 -2.664062 C 0.988281 -3.90625 1.605469 -4.816406 2.789062 -4.816406 C 3.554688 -4.816406 4.101562 -4.441406 4.230469 -3.847656 L 4.929688 -3.847656 C 4.769531 -4.753906 3.988281 -5.390625 2.804688 -5.390625 C 1.121094 -5.390625 0.347656 -4.105469 0.347656 -2.664062 C 0.347656 -1.21875 1.121094 0.0703125 2.804688 0.0703125 Z M 2.804688 0.0703125 "/></g></g></g><g fill="#000000" fill-opacity="1"><g transform="translate(40.443664, 112.674804)"><g><path d="M 1.722656 0 L 1.722656 -0.523438 L 1.535156 -0.523438 C 1.101562 -0.523438 1.074219 -0.71875 1.074219 -1.058594 L 1.074219 -5.320312 L 0.480469 -5.320312 L 0.480469 -0.96875 C 0.480469 -0.195312 0.816406 0 1.394531 0 Z M 1.722656 0 "/></g></g></g><g fill="#000000" fill-opacity="1"><g transform="translate(42.375107, 112.674804)"><g><path d="M 2.210938 0.0703125 C 3.164062 0.0703125 3.75 -0.515625 3.988281 -1.242188 L 3.355469 -1.242188 C 3.1875 -0.816406 2.789062 -0.453125 2.203125 -0.453125 C 1.644531 -0.453125 1.191406 -0.835938 0.996094 -1.429688 C 0.957031 -1.546875 0.925781 -1.695312 0.921875 -1.8125 L 4.058594 -1.8125 L 4.058594 -2.023438 C 4.058594 -3.261719 3.164062 -3.925781 2.195312 -3.925781 C 1.003906 -3.925781 0.335938 -2.964844 0.335938 -1.917969 C 0.335938 -0.78125 1.101562 0.0703125 2.210938 0.0703125 Z M 0.976562 -2.335938 C 0.996094 -2.453125 1.03125 -2.59375 1.085938 -2.710938 C 1.296875 -3.152344 1.695312 -3.402344 2.210938 -3.402344 C 2.707031 -3.402344 3.136719 -3.160156 3.339844 -2.710938 C 3.390625 -2.601562 3.417969 -2.460938 3.421875 -2.335938 Z M 0.976562 -2.335938 "/></g></g></g><g fill="#000000" fill-opacity="1"><g transform="translate(46.760951, 112.674804)"><g><path d="M 1.589844 0.0703125 C 1.945312 0.0703125 2.246094 0.0078125 2.503906 -0.152344 C 2.675781 -0.257812 2.832031 -0.40625 2.96875 -0.605469 L 2.96875 0 L 3.5625 0 L 3.5625 -2.273438 C 3.5625 -2.53125 3.5625 -3.136719 3.160156 -3.527344 C 2.886719 -3.792969 2.476562 -3.925781 2.027344 -3.925781 C 1.289062 -3.925781 0.613281 -3.5 0.480469 -2.699219 L 1.074219 -2.699219 C 1.164062 -3.128906 1.546875 -3.402344 2.023438 -3.402344 C 2.320312 -3.402344 2.566406 -3.304688 2.734375 -3.136719 C 2.894531 -2.976562 2.96875 -2.746094 2.96875 -2.449219 L 1.597656 -2.183594 C 1.214844 -2.105469 0.921875 -1.988281 0.710938 -1.820312 C 0.460938 -1.625 0.335938 -1.351562 0.335938 -1.023438 C 0.335938 -0.347656 0.816406 0.0703125 1.589844 0.0703125 Z M 1.660156 -0.453125 C 1.214844 -0.453125 0.925781 -0.683594 0.925781 -1.039062 C 0.925781 -1.207031 0.984375 -1.339844 1.085938 -1.441406 C 1.21875 -1.570312 1.429688 -1.660156 1.722656 -1.714844 L 2.976562 -1.964844 C 2.976562 -1.324219 2.824219 -0.871094 2.273438 -0.585938 C 2.097656 -0.496094 1.898438 -0.453125 1.660156 -0.453125 Z M 1.660156 -0.453125 "/></g></g></g><g fill="#000000" fill-opacity="1"><g transform="translate(50.777241, 112.674804)"><g><path d="M 1.085938 0 L 1.085938 -1.644531 C 1.085938 -2.433594 1.183594 -2.851562 1.4375 -3.117188 C 1.597656 -3.292969 1.828125 -3.402344 2.140625 -3.402344 C 2.40625 -3.402344 2.601562 -3.332031 2.734375 -3.1875 C 2.886719 -3.011719 2.957031 -2.734375 2.957031 -2.320312 L 2.957031 0 L 3.550781 0 L 3.550781 -2.320312 C 3.550781 -2.566406 3.550781 -2.96875 3.367188 -3.320312 C 3.179688 -3.675781 2.835938 -3.925781 2.230469 -3.925781 C 1.8125 -3.925781 1.476562 -3.757812 1.085938 -3.257812 L 1.085938 -3.855469 L 0.496094 -3.855469 L 0.496094 0 Z M 1.085938 0 "/></g></g></g><g fill="#000000" fill-opacity="1"><g transform="translate(54.793532, 112.674804)"><g><path d="M 0.792969 -4.519531 C 1.046875 -4.519531 1.25 -4.714844 1.25 -4.957031 C 1.25 -5.195312 1.046875 -5.390625 0.792969 -5.390625 C 0.542969 -5.390625 0.339844 -5.195312 0.339844 -4.957031 C 0.339844 -4.714844 0.542969 -4.519531 0.792969 -4.519531 Z M 1.085938 0 L 1.085938 -3.855469 L 0.496094 -3.855469 L 0.496094 0 Z M 1.085938 0 "/></g></g></g><g fill="#000000" fill-opacity="1"><g transform="translate(56.376338, 112.674804)"><g><path d="M 1.085938 0 L 1.085938 -1.644531 C 1.085938 -2.433594 1.183594 -2.851562 1.4375 -3.117188 C 1.597656 -3.292969 1.828125 -3.402344 2.140625 -3.402344 C 2.40625 -3.402344 2.601562 -3.332031 2.734375 -3.1875 C 2.886719 -3.011719 2.957031 -2.734375 2.957031 -2.320312 L 2.957031 0 L 3.550781 0 L 3.550781 -2.320312 C 3.550781 -2.566406 3.550781 -2.96875 3.367188 -3.320312 C 3.179688 -3.675781 2.835938 -3.925781 2.230469 -3.925781 C 1.8125 -3.925781 1.476562 -3.757812 1.085938 -3.257812 L 1.085938 -3.855469 L 0.496094 -3.855469 L 0.496094 0 Z M 1.085938 0 "/></g></g></g><g fill="#000000" fill-opacity="1"><g transform="translate(60.392629, 112.674804)"><g><path d="M 2.195312 1.535156 C 3.207031 1.535156 3.933594 1.121094 3.933594 -0.132812 L 3.933594 -3.855469 L 3.339844 -3.855469 L 3.339844 -3.257812 C 2.949219 -3.757812 2.609375 -3.925781 2.070312 -3.925781 C 1.039062 -3.925781 0.363281 -3.109375 0.363281 -1.910156 C 0.363281 -0.746094 1.039062 0.0703125 2.078125 0.0703125 C 2.59375 0.0703125 2.941406 -0.0820312 3.339844 -0.601562 L 3.339844 -0.0195312 C 3.339844 0.621094 3 1.011719 2.1875 1.011719 C 1.554688 1.011719 1.199219 0.773438 1.082031 0.3125 L 0.472656 0.3125 C 0.628906 1.25 1.414062 1.535156 2.195312 1.535156 Z M 2.132812 -0.453125 C 1.410156 -0.453125 0.957031 -1.085938 0.957031 -1.929688 C 0.957031 -2.769531 1.410156 -3.402344 2.132812 -3.402344 C 2.84375 -3.402344 3.359375 -2.78125 3.359375 -1.929688 C 3.359375 -1.074219 2.851562 -0.453125 2.132812 -0.453125 Z M 2.132812 -0.453125 "/></g></g></g><g fill="#000000" fill-opacity="1"><g transform="translate(64.820312, 112.674804)"><g/></g></g><g fill="#000000" fill-opacity="1"><g transform="translate(66.77268, 112.674804)"><g><path d="M 2.476562 0.0703125 C 3.6875 0.0703125 4.335938 -0.542969 4.335938 -1.484375 C 4.335938 -2.648438 3.382812 -2.851562 2.511719 -3.039062 C 1.800781 -3.195312 1.152344 -3.332031 1.152344 -3.980469 C 1.152344 -4.492188 1.527344 -4.816406 2.246094 -4.816406 C 2.832031 -4.816406 3.410156 -4.582031 3.5625 -3.855469 L 4.183594 -3.855469 C 4.007812 -4.949219 3.152344 -5.390625 2.253906 -5.390625 C 1.214844 -5.390625 0.507812 -4.832031 0.507812 -3.925781 C 0.507812 -2.878906 1.394531 -2.691406 2.222656 -2.515625 C 2.976562 -2.355469 3.695312 -2.203125 3.695312 -1.441406 C 3.695312 -0.808594 3.25 -0.503906 2.503906 -0.503906 C 1.839844 -0.503906 1.109375 -0.761719 0.941406 -1.609375 L 0.292969 -1.609375 C 0.472656 -0.417969 1.421875 0.0703125 2.476562 0.0703125 Z M 2.476562 0.0703125 "/></g></g></g><g fill="#000000" fill-opacity="1"><g transform="translate(71.465321, 112.674804)"><g><path d="M 2.21875 0.0703125 C 3.332031 0.0703125 4.113281 -0.78125 4.113281 -1.945312 C 4.113281 -3.089844 3.320312 -3.925781 2.21875 -3.925781 C 1.117188 -3.925781 0.335938 -3.089844 0.335938 -1.945312 C 0.335938 -0.765625 1.117188 0.0703125 2.21875 0.0703125 Z M 2.21875 -0.453125 C 1.484375 -0.453125 0.925781 -1.074219 0.925781 -1.945312 C 0.925781 -2.78125 1.476562 -3.402344 2.21875 -3.402344 C 2.964844 -3.402344 3.515625 -2.769531 3.515625 -1.945312 C 3.515625 -1.085938 2.957031 -0.453125 2.21875 -0.453125 Z M 2.21875 -0.453125 "/></g></g></g><g fill="#000000" fill-opacity="1"><g transform="translate(75.920897, 112.674804)"><g><path d="M 1.722656 0 L 1.722656 -0.523438 L 1.535156 -0.523438 C 1.101562 -0.523438 1.074219 -0.71875 1.074219 -1.058594 L 1.074219 -5.320312 L 0.480469 -5.320312 L 0.480469 -0.96875 C 0.480469 -0.195312 0.816406 0 1.394531 0 Z M 1.722656 0 "/></g></g></g><g fill="#000000" fill-opacity="1"><g transform="translate(77.852341, 112.674804)"><g><path d="M 1.800781 0.0703125 C 2.238281 0.0703125 2.574219 -0.125 2.941406 -0.601562 L 2.941406 0 L 3.535156 0 L 3.535156 -3.855469 L 2.941406 -3.855469 L 2.941406 -2.210938 C 2.941406 -1.421875 2.84375 -1.003906 2.59375 -0.738281 C 2.417969 -0.550781 2.183594 -0.453125 1.890625 -0.453125 C 1.625 -0.453125 1.429688 -0.523438 1.296875 -0.667969 C 1.144531 -0.84375 1.074219 -1.117188 1.074219 -1.535156 L 1.074219 -3.855469 L 0.480469 -3.855469 L 0.480469 -1.535156 C 0.480469 -1.085938 0.535156 -0.773438 0.664062 -0.535156 C 0.878906 -0.132812 1.253906 0.0703125 1.800781 0.0703125 Z M 1.800781 0.0703125 "/></g></g></g><g fill="#000000" fill-opacity="1"><g transform="translate(81.882578, 112.674804)"><g><path d="M 2.257812 0 L 2.257812 -0.523438 L 1.863281 -0.523438 C 1.429688 -0.523438 1.402344 -0.746094 1.402344 -1.085938 L 1.402344 -3.332031 L 2.265625 -3.332031 L 2.265625 -3.855469 L 1.402344 -3.855469 L 1.402344 -5.320312 L 0.808594 -5.320312 L 0.808594 -3.855469 L 0.1875 -3.855469 L 0.1875 -3.332031 L 0.808594 -3.332031 L 0.808594 -0.96875 C 0.808594 -0.195312 1.144531 0 1.722656 0 Z M 2.257812 0 "/></g></g></g><g fill="#000000" fill-opacity="1"><g transform="translate(84.399733, 112.674804)"><g><path d="M 0.792969 -4.519531 C 1.046875 -4.519531 1.25 -4.714844 1.25 -4.957031 C 1.25 -5.195312 1.046875 -5.390625 0.792969 -5.390625 C 0.542969 -5.390625 0.339844 -5.195312 0.339844 -4.957031 C 0.339844 -4.714844 0.542969 -4.519531 0.792969 -4.519531 Z M 1.085938 0 L 1.085938 -3.855469 L 0.496094 -3.855469 L 0.496094 0 Z M 1.085938 0 "/></g></g></g><g fill="#000000" fill-opacity="1"><g transform="translate(85.982539, 112.674804)"><g><path d="M 2.21875 0.0703125 C 3.332031 0.0703125 4.113281 -0.78125 4.113281 -1.945312 C 4.113281 -3.089844 3.320312 -3.925781 2.21875 -3.925781 C 1.117188 -3.925781 0.335938 -3.089844 0.335938 -1.945312 C 0.335938 -0.765625 1.117188 0.0703125 2.21875 0.0703125 Z M 2.21875 -0.453125 C 1.484375 -0.453125 0.925781 -1.074219 0.925781 -1.945312 C 0.925781 -2.78125 1.476562 -3.402344 2.21875 -3.402344 C 2.964844 -3.402344 3.515625 -2.769531 3.515625 -1.945312 C 3.515625 -1.085938 2.957031 -0.453125 2.21875 -0.453125 Z M 2.21875 -0.453125 "/></g></g></g><g fill="#000000" fill-opacity="1"><g transform="translate(90.438115, 112.674804)"><g><path d="M 1.085938 0 L 1.085938 -1.644531 C 1.085938 -2.433594 1.183594 -2.851562 1.4375 -3.117188 C 1.597656 -3.292969 1.828125 -3.402344 2.140625 -3.402344 C 2.40625 -3.402344 2.601562 -3.332031 2.734375 -3.1875 C 2.886719 -3.011719 2.957031 -2.734375 2.957031 -2.320312 L 2.957031 0 L 3.550781 0 L 3.550781 -2.320312 C 3.550781 -2.566406 3.550781 -2.96875 3.367188 -3.320312 C 3.179688 -3.675781 2.835938 -3.925781 2.230469 -3.925781 C 1.8125 -3.925781 1.476562 -3.757812 1.085938 -3.257812 L 1.085938 -3.855469 L 0.496094 -3.855469 L 0.496094 0 Z M 1.085938 0 "/></g></g></g><g fill="#000000" fill-opacity="1"><g transform="translate(94.454406, 112.674804)"><g><path d="M 2.050781 0.0703125 C 3 0.0703125 3.535156 -0.398438 3.535156 -1.109375 C 3.535156 -1.972656 2.753906 -2.125 2.0625 -2.257812 C 1.535156 -2.363281 1.054688 -2.453125 1.054688 -2.867188 C 1.054688 -3.199219 1.351562 -3.402344 1.863281 -3.402344 C 2.371094 -3.402344 2.753906 -3.1875 2.871094 -2.699219 L 3.421875 -2.699219 C 3.292969 -3.464844 2.699219 -3.925781 1.863281 -3.925781 C 1.074219 -3.925781 0.460938 -3.542969 0.460938 -2.816406 C 0.460938 -2.027344 1.183594 -1.882812 1.855469 -1.75 C 2.417969 -1.636719 2.941406 -1.527344 2.941406 -1.046875 C 2.941406 -0.65625 2.578125 -0.453125 2.058594 -0.453125 C 1.367188 -0.453125 1.019531 -0.773438 0.921875 -1.242188 L 0.300781 -1.242188 C 0.433594 -0.433594 1.066406 0.0703125 2.050781 0.0703125 Z M 2.050781 0.0703125 "/></g></g></g><g fill="#000000" fill-opacity="1"><g transform="translate(98.338217, 112.674804)"><g><path d="M 0.445312 1.191406 C 1.179688 1.117188 1.464844 0.558594 1.464844 0.0546875 C 1.464844 -0.425781 1.234375 -0.753906 0.863281 -0.753906 C 0.59375 -0.753906 0.417969 -0.570312 0.417969 -0.328125 C 0.417969 -0.0820312 0.585938 0.0703125 0.78125 0.0703125 C 0.925781 0.0703125 1.03125 0.0195312 1.09375 -0.0820312 C 1.109375 -0.015625 1.117188 0.0546875 1.117188 0.125 C 1.117188 0.523438 0.878906 0.816406 0.445312 0.878906 Z M 0.445312 1.191406 "/></g></g></g><g fill="#000000" fill-opacity="1"><g transform="translate(100.220852, 112.674804)"><g/></g></g><g fill="#000000" fill-opacity="1"><g transform="translate(102.17322, 112.674804)"><g><path d="M 3.578125 0 L 3.578125 -0.578125 L 1.191406 -0.578125 L 1.191406 -5.320312 L 0.550781 -5.320312 L 0.550781 0 Z M 3.578125 0 "/></g></g></g><g fill="#000000" fill-opacity="1"><g transform="translate(105.85482, 112.674804)"><g><path d="M 3.578125 0 L 3.578125 -0.578125 L 1.191406 -0.578125 L 1.191406 -5.320312 L 0.550781 -5.320312 L 0.550781 0 Z M 3.578125 0 "/></g></g></g><g fill="#000000" fill-opacity="1"><g transform="translate(109.53642, 112.674804)"><g><path d="M 2.804688 0.0703125 C 3.988281 0.0703125 4.761719 -0.578125 4.929688 -1.609375 L 4.230469 -1.609375 C 4.101562 -0.878906 3.554688 -0.503906 2.789062 -0.503906 C 1.605469 -0.503906 0.988281 -1.414062 0.988281 -2.664062 C 0.988281 -3.90625 1.605469 -4.816406 2.789062 -4.816406 C 3.554688 -4.816406 4.101562 -4.441406 4.230469 -3.847656 L 4.929688 -3.847656 C 4.769531 -4.753906 3.988281 -5.390625 2.804688 -5.390625 C 1.121094 -5.390625 0.347656 -4.105469 0.347656 -2.664062 C 0.347656 -1.21875 1.121094 0.0703125 2.804688 0.0703125 Z M 2.804688 0.0703125 "/></g></g></g></svg>