<?xml version="1.0" standalone="no"?>
<!DOCTYPE svg PUBLIC "-//W3C//DTD SVG 20010904//EN"
 "http://www.w3.org/TR/2001/REC-SVG-20010904/DTD/svg10.dtd">
<svg version="1.0" xmlns="http://www.w3.org/2000/svg"
 width="183.000000pt" height="183.000000pt" viewBox="0 0 183.000000 183.000000"
 preserveAspectRatio="xMidYMid meet">
<metadata>
Created by potrace 1.14, written by Peter Selinger 2001-2017
</metadata>
<g transform="translate(0.000000,183.000000) scale(0.100000,-0.100000)"
fill="#000000" stroke="none">
<path d="M650 1234 l0 -289 146 147 147 146 -59 59 c-32 32 -98 96 -146 143
l-88 84 0 -290z"/>
<path d="M331 713 c-7 -54 -15 -115 -18 -135 -6 -38 -5 -38 30 -38 29 0 36 4
39 22 5 32 28 35 28 4 0 -23 4 -26 35 -26 41 0 41 -7 17 150 l-18 115 -50 3
-50 3 -13 -98z m72 -35 c6 -40 4 -48 -9 -48 -11 0 -14 5 -10 16 3 9 6 32 6 51
0 48 6 39 13 -19z"/>
<path d="M500 675 l0 -136 38 1 c20 1 46 -1 58 -5 40 -13 54 17 54 114 0 100
-10 118 -60 107 -28 -5 -30 -3 -30 24 0 27 -3 30 -30 30 l-30 0 0 -135z m80
-31 c0 -47 -4 -73 -10 -69 -5 3 -10 37 -10 76 0 39 4 69 10 69 6 0 10 -32 10
-76z"/>
<path d="M1010 675 l0 -135 35 0 35 0 0 135 0 135 -35 0 -35 0 0 -135z"/>
<path d="M1279 768 c-4 -62 4 -195 12 -210 12 -23 79 -25 79 -3 0 8 -4 15 -10
15 -6 0 -10 32 -10 75 0 43 4 75 10 75 6 0 10 7 10 15 0 8 -4 15 -10 15 -5 0
-10 9 -10 20 0 16 -7 20 -35 20 -29 0 -35 -4 -36 -22z"/>
<path d="M688 749 c-12 -7 -18 -22 -18 -49 0 -35 4 -43 40 -65 25 -16 40 -33
40 -45 0 -11 -4 -20 -10 -20 -5 0 -10 9 -10 20 0 16 -7 20 -30 20 -25 0 -30
-4 -30 -24 0 -29 15 -41 58 -51 23 -5 40 -2 58 10 21 14 25 23 22 58 -3 37 -7
44 -40 62 -35 18 -53 55 -28 55 6 0 10 -7 10 -15 0 -10 10 -15 30 -15 22 0 30
5 30 18 0 43 -76 68 -122 41z"/>
<path d="M855 746 c-16 -11 -20 -29 -23 -89 -4 -71 -3 -77 23 -103 22 -22 32
-25 63 -21 56 10 66 26 66 113 0 68 -2 79 -23 95 -27 22 -79 25 -106 5z m65
-101 c0 -43 -4 -75 -10 -75 -6 0 -10 32 -10 75 0 43 4 75 10 75 6 0 10 -32 10
-75z"/>
<path d="M1100 661 c0 -110 13 -139 54 -126 12 4 41 6 64 5 l44 -1 -4 108 -3
108 -32 3 -33 3 0 -95 c0 -57 -4 -96 -10 -96 -6 0 -10 38 -10 95 l0 95 -35 0
-35 0 0 -99z"/>
<path d="M1405 746 c-16 -11 -20 -29 -23 -88 -5 -93 13 -123 77 -123 47 0 68
17 77 63 6 31 6 32 -30 32 -33 0 -36 -2 -36 -30 0 -16 -4 -30 -10 -30 -5 0
-10 15 -10 34 0 34 1 35 43 38 l42 3 -2 39 c-2 22 -10 47 -19 58 -21 22 -82
24 -109 4z m65 -46 c0 -11 -4 -20 -10 -20 -5 0 -10 9 -10 20 0 11 5 20 10 20
6 0 10 -9 10 -20z"/>
<path d="M276 474 c-19 -19 -20 -28 -3 -42 10 -8 13 -5 12 16 0 20 5 27 18 26
9 -1 17 2 17 7 0 14 -27 10 -44 -7z"/>
<path d="M390 456 c0 -20 5 -36 10 -36 6 0 10 13 10 29 0 17 -4 33 -10 36 -6
4 -10 -8 -10 -29z"/>
<path d="M587 483 c-11 -10 -8 -63 3 -63 6 0 10 16 10 35 0 36 -2 40 -13 28z"/>
<path d="M660 480 c0 -5 5 -10 11 -10 5 0 7 5 4 10 -3 6 -8 10 -11 10 -2 0 -4
-4 -4 -10z"/>
<path d="M702 481 c-17 -10 -12 -53 6 -57 7 -1 8 0 2 3 -14 7 -13 36 2 51 14
14 9 15 -10 3z"/>
<path d="M730 480 c0 -5 5 -10 11 -10 5 0 7 5 4 10 -3 6 -8 10 -11 10 -2 0 -4
-4 -4 -10z"/>
<path d="M790 480 c-12 -7 -11 -12 5 -31 18 -20 18 -22 3 -16 -10 4 -18 2 -18
-3 0 -6 9 -10 20 -10 21 0 28 24 10 35 -5 3 -10 11 -10 16 0 6 5 7 10 4 6 -3
10 -1 10 4 0 13 -10 14 -30 1z"/>
<path d="M840 475 c-6 -8 -9 -23 -5 -35 10 -31 22 -24 17 10 -3 23 -1 30 13
30 14 0 16 -7 13 -30 -3 -19 -1 -29 6 -27 16 5 19 36 6 52 -16 19 -34 19 -50
0z"/>
<path d="M1108 455 c-2 -19 0 -35 4 -35 4 0 8 16 8 35 0 19 -2 35 -4 35 -2 0
-6 -16 -8 -35z"/>
<path d="M1146 474 c-19 -19 -20 -28 -3 -42 10 -8 13 -5 12 16 0 17 5 27 15
27 10 0 14 -9 13 -28 -1 -15 2 -25 8 -22 13 9 11 39 -3 53 -16 16 -23 15 -42
-4z"/>
<path d="M1261 474 c0 -11 3 -14 6 -6 3 7 2 16 -1 19 -3 4 -6 -2 -5 -13z"/>
<path d="M1291 476 c-9 -11 -9 -16 2 -23 8 -4 17 -15 20 -23 4 -10 6 -7 6 8 1
12 -3 22 -9 22 -5 0 -10 5 -10 11 0 5 5 7 10 4 6 -3 10 -1 10 4 0 15 -15 14
-29 -3z"/>
<path d="M1510 475 c-14 -17 -10 -47 8 -53 11 -3 11 0 1 16 -10 17 -10 23 0
36 8 9 11 16 8 16 -2 0 -10 -7 -17 -15z"/>
<path d="M1540 480 c0 -5 5 -10 11 -10 5 0 7 5 4 10 -3 6 -8 10 -11 10 -2 0
-4 -4 -4 -10z"/>
<path d="M338 450 c-3 -19 0 -30 7 -30 7 0 10 11 7 30 -2 17 -5 30 -7 30 -2 0
-5 -13 -7 -30z"/>
<path d="M460 475 c0 -2 5 -16 12 -30 16 -35 29 -31 17 5 -6 17 -15 30 -20 30
-5 0 -9 -2 -9 -5z"/>
<path d="M513 448 c-1 -29 0 -30 6 -8 l7 24 17 -24 c12 -17 17 -20 17 -9 0 14
-29 49 -41 49 -3 0 -5 -15 -6 -32z"/>
<path d="M620 476 c0 -3 11 -17 25 -32 28 -30 35 -16 8 16 -16 18 -33 26 -33
16z"/>
<path d="M910 450 c0 -16 5 -30 10 -30 6 0 10 14 10 30 0 17 -4 30 -10 30 -5
0 -10 -13 -10 -30z"/>
<path d="M972 453 c2 -20 9 -29 26 -31 12 -2 22 1 22 6 0 5 -8 9 -17 8 -13 -1
-18 6 -17 22 0 12 -3 22 -8 22 -5 0 -8 -12 -6 -27z"/>
<path d="M1058 450 c-3 -16 -1 -30 4 -30 4 0 8 14 8 30 0 17 -2 30 -4 30 -2 0
-6 -13 -8 -30z"/>
<path d="M1220 475 c0 -3 11 -18 25 -33 14 -15 25 -21 25 -14 0 6 -9 21 -20
32 -20 20 -30 25 -30 15z"/>
<path d="M1390 450 c0 -16 4 -30 8 -30 5 0 7 14 4 30 -2 17 -6 30 -8 30 -2 0
-4 -13 -4 -30z"/>
<path d="M1445 450 c0 -16 5 -30 11 -30 6 0 9 13 6 30 -2 17 -7 30 -11 30 -3
0 -6 -13 -6 -30z"/>
<path d="M450 441 c0 -5 -8 -12 -17 -14 -14 -4 -12 -5 5 -6 13 -1 22 5 22 14
0 8 -2 15 -5 15 -3 0 -5 -4 -5 -9z"/>
<path d="M621 434 c0 -11 3 -14 6 -6 3 7 2 16 -1 19 -3 4 -6 -2 -5 -13z"/>
<path d="M730 435 c0 -8 5 -15 10 -15 6 0 10 7 10 15 0 8 -4 15 -10 15 -5 0
-10 -7 -10 -15z"/>
<path d="M1280 430 c0 -5 5 -10 11 -10 5 0 7 5 4 10 -3 6 -8 10 -11 10 -2 0
-4 -4 -4 -10z"/>
<path d="M1341 424 c0 -11 3 -14 6 -6 3 7 2 16 -1 19 -3 4 -6 -2 -5 -13z"/>
<path d="M1545 430 c-3 -5 -1 -10 4 -10 6 0 11 5 11 10 0 6 -2 10 -4 10 -3 0
-8 -4 -11 -10z"/>
</g>
</svg>
